<?xml version="1.0" standalone="no"?>
<!DOCTYPE svg PUBLIC "-//W3C//DTD SVG 20010904//EN"
 "http://www.w3.org/TR/2001/REC-SVG-20010904/DTD/svg10.dtd">
<svg version="1.0" xmlns="http://www.w3.org/2000/svg"
 width="512.000000pt" height="512.000000pt" viewBox="0 0 512.000000 512.000000"
 preserveAspectRatio="xMidYMid meet">
<metadata>
Created by potrace 1.11, written by Peter Selinger 2001-2013
</metadata>
<g transform="translate(0.000000,512.000000) scale(0.100000,-0.100000)"
fill="#000000" stroke="none">
<path d="M1447 5114 c-1 -1 -69 -5 -152 -9 -82 -3 -163 -8 -180 -10 -16 -2
-75 -6 -130 -10 -55 -4 -113 -8 -130 -10 -16 -2 -64 -7 -105 -10 -123 -11
-173 -23 -193 -47 -18 -21 -18 -41 -13 -317 7 -317 10 -334 59 -347 23 -5 24
-10 25 -99 2 -91 2 -93 -23 -99 -47 -12 -49 -30 -46 -336 11 -862 3 -2493 -15
-3412 l-6 -287 24 -24 c20 -20 40 -26 104 -32 43 -5 86 -9 94 -10 8 -1 56 -5
105 -9 50 -4 101 -9 115 -11 25 -4 186 -14 310 -21 36 -1 174 -6 306 -9 305
-8 293 -14 309 135 3 30 8 71 10 90 3 19 7 62 10 95 8 107 15 179 20 215 2 19
7 69 10 110 3 41 8 100 10 130 2 30 7 96 10 145 4 50 8 115 10 144 6 94 17
363 19 454 0 48 3 87 6 88 139 27 939 31 1065 5 11 -3 25 -5 30 -5 6 -1 10
-35 11 -79 1 -89 13 -381 19 -462 2 -30 6 -98 10 -150 3 -52 8 -115 10 -140 2
-25 7 -79 10 -120 3 -41 8 -93 10 -115 2 -22 7 -71 10 -110 3 -38 8 -86 11
-105 2 -19 6 -57 9 -85 19 -210 22 -221 62 -236 24 -9 406 -5 568 6 22 1 96 6
165 10 69 4 133 9 142 10 9 2 57 7 105 10 48 4 97 8 108 9 11 2 55 6 98 11 54
5 85 14 103 28 l26 20 -6 296 c-26 1283 -26 3061 0 4303 l6 287 -26 25 c-15
16 -38 27 -58 28 -45 2 -76 5 -123 11 -22 3 -74 9 -115 12 -41 3 -95 8 -120
10 -44 4 -179 13 -297 20 -208 12 -564 15 -583 5 -28 -15 -37 -42 -45 -136 -3
-43 -8 -99 -11 -124 -6 -62 -12 -138 -19 -250 -3 -52 -7 -115 -10 -140 -2 -25
-7 -94 -10 -155 -3 -60 -8 -151 -11 -201 -4 -81 -3 -93 16 -117 12 -15 30 -27
41 -27 11 0 18 -4 15 -8 -3 -5 -6 -45 -7 -90 -1 -76 -3 -81 -25 -86 -52 -13
-55 -33 -60 -328 -3 -150 -7 -278 -9 -284 -2 -8 -23 -10 -62 -6 -73 7 -916 8
-1001 0 -34 -2 -64 -2 -66 1 -2 3 -7 152 -11 331 -4 179 -8 352 -10 385 -1 33
-6 128 -9 210 -4 83 -9 177 -11 210 -2 33 -7 107 -10 165 -3 58 -8 128 -10
155 -14 181 -18 222 -20 235 -2 8 -6 57 -10 109 -8 108 -16 135 -44 151 -13 6
-91 9 -216 8 -108 -2 -197 -4 -198 -4z"/>
</g>
</svg>
