<?xml version="1.0" standalone="no"?>
<!DOCTYPE svg PUBLIC "-//W3C//DTD SVG 20010904//EN"
 "http://www.w3.org/TR/2001/REC-SVG-20010904/DTD/svg10.dtd">
<svg version="1.0" xmlns="http://www.w3.org/2000/svg"
 width="200.000000pt" height="200.000000pt" viewBox="0 0 200.000000 200.000000"
 preserveAspectRatio="xMidYMid meet">
<metadata>
Created by potrace 1.16, written by Peter Selinger 2001-2019
</metadata>
<g transform="translate(0.000000,200.000000) scale(0.100000,-0.100000)"
fill="#000000" stroke="none">
<path d="M750 1737 c-19 -9 -26 -22 -28 -51 -4 -45 12 -60 63 -62 17 0 52 -10
79 -22 27 -12 50 -22 52 -22 2 0 34 -14 70 -31 122 -55 164 -64 164 -35 0 7
11 34 24 61 13 27 21 57 18 67 -4 17 -37 32 -58 27 -5 -1 -36 10 -69 25 -95
43 -109 44 -125 4 -7 -18 -15 -34 -16 -36 -1 -2 -15 3 -32 12 -16 8 -32 13
-35 10 -3 -3 -12 8 -21 24 -22 42 -45 50 -86 29z"/>
<path d="M1257 1722 c-9 -10 -17 -35 -17 -54 0 -21 -21 -85 -51 -155 -74 -171
-80 -190 -66 -201 7 -6 41 -22 75 -36 50 -21 67 -24 78 -15 20 16 18 56 -3 68
-17 10 -16 10 2 11 16 0 27 16 48 71 16 39 26 78 23 85 -3 8 -19 17 -36 21
-17 3 -29 8 -28 12 2 3 10 23 18 43 7 21 22 40 31 43 9 3 22 19 29 36 11 27
10 34 -7 57 -25 34 -72 41 -96 14z"/>
<path d="M786 1554 c-14 -35 -6 -51 34 -67 22 -8 40 -21 40 -27 0 -7 -6 -5
-16 4 -8 9 -19 16 -24 16 -5 0 -15 2 -23 5 -10 4 -22 -12 -41 -55 -15 -33 -29
-69 -31 -80 -4 -23 27 -44 56 -37 10 3 19 4 19 2 0 -16 -47 -101 -66 -121 -20
-19 -24 -31 -19 -52 10 -41 24 -52 64 -52 49 0 61 14 61 71 0 34 16 83 61 190
38 92 57 149 52 157 -9 16 -117 62 -144 62 -9 0 -20 -7 -23 -16z"/>
<path d="M906 1279 c-30 -69 -33 -104 -10 -113 32 -12 46 -5 61 34 9 23 23 40
31 40 13 0 13 -2 -1 -13 -10 -6 -19 -25 -20 -40 -2 -26 4 -31 66 -58 38 -16
75 -29 82 -29 15 0 30 54 20 70 -8 14 -3 13 44 -8 22 -10 50 -31 61 -45 40
-51 120 -27 120 36 0 32 -45 71 -75 63 -18 -5 -220 69 -298 109 -45 23 -53 19
-81 -46z"/>
<path d="M987 963 c-11 -10 -8 -229 3 -257 8 -23 15 -26 55 -26 43 0 45 1 45
30 0 18 -6 33 -15 36 -12 5 -15 26 -15 99 0 51 -3 100 -6 109 -6 16 -54 22
-67 9z"/>
<path d="M506 928 c-8 -30 -8 -196 0 -226 5 -19 12 -23 38 -20 29 3 31 5 34
51 l3 47 45 0 44 0 0 -50 0 -50 35 0 35 0 0 135 0 135 -35 0 -35 0 0 -50 0
-50 -44 0 -45 0 -3 48 c-3 45 -5 47 -34 50 -26 3 -33 -1 -38 -20z"/>
<path d="M767 874 c-4 -4 -7 -35 -7 -70 0 -52 4 -67 25 -93 25 -28 30 -30 101
-30 l75 0 -3 97 -3 97 -30 0 c-29 0 -30 -2 -33 -52 -6 -96 -52 -96 -62 0 -4
47 -8 52 -30 55 -14 2 -29 0 -33 -4z"/>
<path d="M1081 862 c-7 -14 0 -34 30 -87 37 -63 39 -71 28 -98 -7 -16 -21 -37
-31 -47 -17 -15 -18 -31 -16 -151 l3 -134 33 -3 c29 -3 32 -1 32 24 l0 28 28
-27 c33 -32 67 -35 82 -7 11 21 11 21 36 1 20 -16 41 -20 95 -20 l70 0 -3 97
-3 97 -67 2 c-59 2 -71 -1 -95 -21 -23 -20 -28 -32 -28 -74 l0 -49 -26 21
c-26 21 -26 21 -8 42 22 23 24 45 7 62 -18 18 -39 15 -65 -10 l-23 -21 0 50
c0 33 5 53 13 56 16 6 117 228 117 257 0 13 -9 22 -27 26 -28 8 -49 -11 -60
-53 -7 -32 -16 -29 -42 17 -25 44 -63 55 -80 22z"/>
<path d="M1347 864 c-54 -29 -64 -102 -21 -153 24 -29 29 -30 100 -30 l75 1
-3 96 -3 97 -61 1 c-35 1 -72 -4 -87 -12z"/>
<path d="M100 486 l0 -146 31 0 c22 0 32 5 36 20 5 19 6 19 33 -1 33 -25 60
-22 75 8 l11 21 23 -24 c21 -21 30 -24 94 -21 l72 2 0 95 0 95 -68 2 c-59 1
-71 -2 -97 -24 -25 -21 -30 -32 -30 -69 0 -49 -8 -54 -35 -24 -18 20 -18 21 4
44 19 20 21 28 12 45 -14 25 -38 27 -68 6 -22 -15 -22 -15 -25 47 l-3 63 -32
3 -33 3 0 -145z"/>
<path d="M506 533 c-3 -4 -6 -48 -6 -100 l0 -93 35 0 34 0 3 63 3 62 38 1 c36
1 37 0 37 -33 0 -25 8 -43 28 -63 26 -26 35 -28 101 -28 l72 0 -3 96 -3 97
-69 2 c-63 2 -70 0 -97 -26 l-28 -28 -3 26 c-3 25 -6 26 -70 28 -36 1 -69 -1
-72 -4z"/>
<path d="M899 510 c-39 -38 -40 -95 -3 -139 25 -30 28 -31 97 -28 l72 2 0 95
0 95 -69 2 c-63 2 -70 0 -97 -27z"/>
<path d="M1487 533 c-14 -14 -6 -44 29 -102 l37 -61 -18 -47 c-17 -44 -17 -47
0 -60 42 -30 47 -24 114 130 56 126 57 147 5 147 -19 0 -28 -9 -40 -40 -9 -22
-19 -40 -23 -40 -3 0 -16 18 -29 40 -16 28 -29 40 -46 40 -12 0 -26 -3 -29 -7z"/>
<path d="M1751 525 c-28 -15 -50 -51 -51 -83 0 -30 26 -79 48 -91 26 -14 145
-12 154 2 9 14 10 133 2 164 -5 19 -13 21 -68 21 -34 0 -73 -6 -85 -13z"/>
</g>
</svg>
